# xmcd
#
# Track frame offsets: 
#        150
#        12756
#        28969
#        51851
#        71103
#        93683
#        108313
#        127929
#        145226
#        164689
#        186045
#
# Disc length: 2729 seconds
#
# Revision: 0
# Processed by: cddbd v1.5.2PL0 Copyright (c) Steve Scherf et al.
# Submitted via: ExactAudioCopy v1.0b3
#
DISCID=9c0aa70b
DTITLE=Deborah Coleman - Takin' A Stand
DYEAR=1994
DGENRE=Blues
TTITLE0=Evil Gal's Daughte
TTITLE1=Missin' You
TTITLE2=Don't Talk About Love
TTITLE3=Takin' A Stand
TTITLE4=I Believe
TTITLE5=Moanin' The Blues
TTITLE6=I Cry
TTITLE7=What Should I Do
TTITLE8=Can't Leave The Blues
TTITLE9=Them Changes
TTITLE10=Changes Revisited
EXTD=
EXTT0=
EXTT1=
EXTT2=
EXTT3=
EXTT4=
EXTT5=
EXTT6=
EXTT7=
EXTT8=
EXTT9=
EXTT10=
PLAYORDER=
